<svg xmlns="http://www.w3.org/2000/svg" version="1.1" viewBox="-5.0 -10.0 110.0 120.0">
 <path fill="white" d="m82.699 29c-6.8984-10.801-19-17.898-32.801-17.898-21.398 0-38.898 17.398-38.898 38.898 0 19.602 14.5 35.898 33.398 38.5 0 0 22.102 4.3008 36.199-14.602 2.3984-3 4.3008-6.3984 5.6992-10 0-0.10156 0.10156-0.10156 0.10156-0.19922 0 0 7.8008-17.801-3.6992-34.699zm-29.5 7.1016c0-1.3984 1.1016-2.5 2.5-2.5h4.8984c1.3984 0 2.5 1.1016 2.5 2.5l0.003906 27.898c0 1.3984-1.1016 2.5-2.5 2.5h-4.8984c-1.3984 0-2.5-1.1016-2.5-2.5zm-8.8984 30.297h-4.8984c-1.3984 0-2.5-1.1016-2.5-2.5l-0.003906-27.797c0-1.3984 1.1016-2.5 2.5-2.5h4.8984c1.3984 0 2.5 1.1016 2.5 2.5l0.003906 27.898c0 1.3008-1.1016 2.3984-2.5 2.3984z"/>
</svg>