<svg xmlns="http://www.w3.org/2000/svg" version="1.1" viewBox="-5.0 -10.0 110.0 120.0">
 <path fill="white" d="m50.77 7.543c-23.395 0-42.457 19.039-42.457 42.457s19.062 42.457 42.457 42.457c23.418 0 42.461-19.039 42.461-42.457s-19.043-42.457-42.461-42.457zm9.168 44.27-26.875 15.5c-0.48047 0.29297-1.0195 0.41797-1.5625 0.41797s-1.0625-0.125-1.5625-0.41797c-0.95703-0.54297-1.5625-1.582-1.5625-2.707v-31.023c0-1.125 0.60547-2.1445 1.5625-2.707 0.98047-0.5625 2.168-0.5625 3.125 0l26.875 15.52c0.98047 0.5625 1.5625 1.582 1.5625 2.707 0 1.1055-0.58203 2.1484-1.5625 2.7109zm13.23 12.793c0 1.7305-1.3945 3.125-3.125 3.125s-3.125-1.3945-3.125-3.125v-31.023c0-1.7305 1.3945-3.125 3.125-3.125s3.125 1.3945 3.125 3.125z"/>
<text x="0.0" y="117.5" font-size="5.0" font-weight="bold" font-family="Arbeit Regular, Helvetica, Arial-Unicode, Arial, Sans-serif" fill="#000000">Created by Culai Lai</text><text x="0.0" y="122.5" font-size="5.0" font-weight="bold" font-family="Arbeit Regular, Helvetica, Arial-Unicode, Arial, Sans-serif" fill="#000000">from Noun Project</text></svg>