<svg xmlns="http://www.w3.org/2000/svg" version="1.1" viewBox="-5.0 -10.0 110.0 120.0">
 <path d="m50 3.125c4.3164 0 7.8125 3.4961 7.8125 7.8125 0 0.91016-0.16016 1.7852-0.44531 2.6016l20.617 11.652c1.4141-2.0039 3.75-3.3164 6.3906-3.3164 4.3164 0 7.8125 3.4961 7.8125 7.8125 0 3.7812-2.6836 6.9297-6.25 7.6562v25.312c3.5664 0.72266 6.25 3.875 6.25 7.6562 0 4.3164-3.4961 7.8125-7.8125 7.8125-2.6406 0-4.9766-1.3125-6.3906-3.3203l-20.617 11.656c0.28516 0.8125 0.44531 1.6875 0.44531 2.6016 0 4.3164-3.4961 7.8125-7.8125 7.8125s-7.8125-3.4961-7.8125-7.8125c0-0.91406 0.15625-1.7891 0.44531-2.6016l-20.617-11.656c-1.4141 2.0078-3.75 3.3203-6.3906 3.3203-4.3164 0-7.8125-3.4961-7.8125-7.8125 0-3.7812 2.6836-6.9336 6.25-7.6562v-25.312c-3.5664-0.72656-6.25-3.875-6.25-7.6562 0-4.3164 3.4961-7.8125 7.8125-7.8125 2.6406 0 4.9766 1.3125 6.3906 3.3164l20.617-11.652c-0.28516-0.81641-0.44531-1.6914-0.44531-2.6016 0-4.3164 3.4961-7.8125 7.8125-7.8125zm-26.848 65.102c0.18359 0.66406 0.28516 1.3633 0.28516 2.0859 0 0.55469-0.058594 1.0938-0.16797 1.6133l20.973 11.855c1.0938-1.1914 2.5508-2.043 4.1953-2.375v-17.434c-3.9961-0.44141-7.4883-2.5547-9.7578-5.6289zm38.164-9.8828c-2.2695 3.0742-5.7578 5.1875-9.7539 5.6289v17.434c1.6445 0.33203 3.1016 1.1836 4.1914 2.375l20.977-11.855c-0.10938-0.51953-0.16797-1.0586-0.16797-1.6133 0-0.72266 0.097656-1.4219 0.28125-2.0859zm-39.594-23.777c-1.1211 1.3984-2.7109 2.4062-4.5352 2.7773v25.312c1.8242 0.37109 3.4141 1.375 4.5352 2.7734l15.395-9.793c-0.75781-1.7266-1.1797-3.6328-1.1797-5.6367s0.42188-3.9102 1.1797-5.6367zm41.16 9.7969c0.75781 1.7266 1.1797 3.6328 1.1797 5.6367s-0.42188 3.9102-1.1797 5.6367l15.395 9.793c1.1211-1.3984 2.7109-2.4023 4.5352-2.7734v-25.312c-1.8242-0.37109-3.4141-1.375-4.5352-2.7773zm-39.613-16.293c0.10938 0.52344 0.16797 1.0625 0.16797 1.6172 0 0.72266-0.10156 1.4219-0.28516 2.0859l15.527 9.8828c2.2695-3.0742 5.7617-5.1875 9.7578-5.6289v-17.434c-1.6445-0.33594-3.1016-1.1836-4.1953-2.375zm32.488-11.852c-1.0938 1.1875-2.5508 2.0391-4.1953 2.375v17.434c3.9961 0.44141 7.4844 2.5547 9.7539 5.6289l15.527-9.8828c-0.18359-0.66406-0.28125-1.3633-0.28125-2.0859 0-0.55469 0.058594-1.0938 0.16797-1.6172z" fill-rule="evenodd"/>
</svg>